<svg width="20" height="20" viewBox="0 0 20 20" fill="none" xmlns="http://www.w3.org/2000/svg">
<g clip-path="url(#clip0_1_156)">
<path fill-rule="evenodd" clip-rule="evenodd" d="M17.3281 13.7453C16.8945 12.9984 16.25 10.8852 16.25 8.125C16.25 4.67322 13.4518 1.875 10 1.875C6.54822 1.875 3.75 4.67322 3.75 8.125C3.75 10.8859 3.10469 12.9984 2.67109 13.7453C2.44572 14.1318 2.44408 14.6092 2.6668 14.9973C2.88951 15.3853 3.30261 15.6247 3.75 15.625H6.93828C7.23556 17.0796 8.51529 18.1243 10 18.1243C11.4847 18.1243 12.7644 17.0796 13.0617 15.625H16.25C16.6972 15.6244 17.1101 15.3849 17.3326 14.9969C17.5551 14.609 17.5534 14.1317 17.3281 13.7453V13.7453ZM10 16.875C9.20562 16.8748 8.49761 16.3739 8.23281 15.625H11.7672C11.5024 16.3739 10.7944 16.8748 10 16.875V16.875ZM3.75 14.375C4.35156 13.3406 5 10.9437 5 8.125C5 5.36358 7.23858 3.125 10 3.125C12.7614 3.125 15 5.36358 15 8.125C15 10.9414 15.6469 13.3383 16.25 14.375H3.75Z" fill="white"/>
</g>
<defs>
<clipPath id="clip0_1_156">
<rect width="20" height="20" fill="white"/>
</clipPath>
</defs>
</svg>
